<svg width="52" height="52" viewBox="0 0 52 52" fill="none" xmlns="http://www.w3.org/2000/svg">
<circle cx="26" cy="26" r="26" fill="url(#paint0_radial_117_2441)"/>
<path d="M12 12.5H16.5V14H28.5V12.5H33V17H31.5V23H36V21.5H40.5V26H39V36.5H40.5V41H36V39.5H25.5V41H21V36.5H22.5V32H16.5V33.5H12V29H13.5V17H12V12.5ZM36 26V24.5H31.5V29H33V33.5H28.5V32H24V36.5H25.5V38H36V36.5H37.5V26H36ZM28.5 17V15.5H16.5V17H15V29H16.5V30.5H22.5V26H21V21.5H25.5V23H30V17H28.5ZM25.5 26H24V30.5H28.5V29H30V24.5H25.5V26ZM13.5 15.5H15V14H13.5V15.5ZM30 15.5H31.5V14H30V15.5ZM22.5 24.5H24V23H22.5V24.5ZM37.5 24.5H39V23H37.5V24.5ZM22.5 39.5H24V38H22.5V39.5ZM37.5 39.5H39V38H37.5V39.5ZM13.5 32H15V30.5H13.5V32ZM30 32H31.5V30.5H30V32Z" fill="white"/>
<defs>
<radialGradient id="paint0_radial_117_2441" cx="0" cy="0" r="1" gradientUnits="userSpaceOnUse" gradientTransform="translate(2.83693 7.23864) rotate(40.1538) scale(57.96 214.174)">
<stop stop-color="#718FFA"/>
<stop offset="1" stop-color="#73B6F4"/>
</radialGradient>
</defs>
</svg>
