<svg width="52" height="52" viewBox="0 0 52 52" fill="none" xmlns="http://www.w3.org/2000/svg">
<circle cx="26" cy="26" r="26" fill="url(#paint0_radial_79_2132)"/>
<path d="M29 38.0001C29 38.7957 28.6839 39.5588 28.1213 40.1214C27.5587 40.684 26.7957 41.0001 26 41.0001H24.5C23.7044 41.0001 22.9413 40.684 22.3787 40.1214C21.8161 39.5588 21.5 38.7957 21.5 38.0001H23C23 38.3979 23.158 38.7794 23.4393 39.0607C23.7206 39.342 24.1022 39.5001 24.5 39.5001H26C26.3978 39.5001 26.7794 39.342 27.0607 39.0607C27.342 38.7794 27.5 38.3979 27.5 38.0001H29ZM30.5 33.5001C30.5 34.2957 30.1839 35.0588 29.6213 35.6214C29.0587 36.184 28.2957 36.5001 27.5 36.5001H23C22.2044 36.5001 21.4413 36.184 20.8787 35.6214C20.3161 35.0588 20 34.2957 20 33.5001V30.4671C18.2231 29.3316 16.8621 27.6506 16.1214 25.6762C15.3806 23.7019 15.2999 21.5405 15.8914 19.5164C16.4829 17.4923 17.7147 15.7145 19.402 14.4497C21.0893 13.1849 23.1412 12.5012 25.25 12.5012C27.3588 12.5012 29.4107 13.1849 31.098 14.4497C32.7853 15.7145 34.0171 17.4923 34.6086 19.5164C35.2001 21.5405 35.1194 23.7019 34.3786 25.6762C33.6379 27.6506 32.2769 29.3316 30.5 30.4671V33.5001ZM21.5 33.5001C21.5 33.8979 21.658 34.2794 21.9393 34.5607C22.2206 34.842 22.6022 35.0001 23 35.0001H27.5C27.8978 35.0001 28.2794 34.842 28.5607 34.5607C28.842 34.2794 29 33.8979 29 33.5001V29.6001C30.6502 28.7579 31.9689 27.3849 32.7438 25.702C33.5186 24.0192 33.7045 22.1245 33.2715 20.3232C32.8384 18.5218 31.8116 16.9187 30.3565 15.7719C28.9014 14.6252 27.1027 14.0016 25.25 14.0016C23.3973 14.0016 21.5986 14.6252 20.1435 15.7719C18.6884 16.9187 17.6616 18.5218 17.2285 20.3232C16.7955 22.1245 16.9814 24.0192 17.7562 25.702C18.5311 27.3849 19.8498 28.7579 21.5 29.6001V33.5001Z" fill="white"/>
<defs>
<radialGradient id="paint0_radial_79_2132" cx="0" cy="0" r="1" gradientUnits="userSpaceOnUse" gradientTransform="translate(2.83693 7.23864) rotate(40.1538) scale(57.96 214.174)">
<stop stop-color="#A471FA"/>
<stop offset="1" stop-color="#73B6F4"/>
</radialGradient>
</defs>
</svg>
