<svg width="52" height="52" viewBox="0 0 52 52" fill="none" xmlns="http://www.w3.org/2000/svg">
<circle cx="26" cy="26" r="26" fill="url(#paint0_radial_79_2126)"/>
<path d="M22.25 13C24.1153 13 25.9415 13.535 27.5119 14.5416C29.0823 15.5483 30.331 16.9843 31.1098 18.6793C31.8886 20.3742 32.1648 22.257 31.9057 24.1043C31.6466 25.9515 30.8631 27.6857 29.648 29.101L38.114 37.567L37.0535 38.6275L28.586 30.16C27.3918 31.1812 25.9685 31.8987 24.4373 32.2513C22.9061 32.6039 21.3123 32.5813 19.7917 32.1852C18.2711 31.7891 16.8688 31.0314 15.7042 29.9766C14.5395 28.9218 13.6471 27.6012 13.1028 26.1271C12.5586 24.6531 12.3786 23.0694 12.5783 21.5108C12.778 19.9522 13.3515 18.465 14.2498 17.1759C15.1481 15.8867 16.3447 14.8337 17.7377 14.1066C19.1307 13.3795 20.6787 12.9999 22.25 13ZM22.25 14.5C20.062 14.5 17.9636 15.3692 16.4164 16.9164C14.8692 18.4635 14 20.562 14 22.75C14 24.938 14.8692 27.0365 16.4164 28.5836C17.9636 30.1308 20.062 31 22.25 31C24.4381 31 26.5365 30.1308 28.0837 28.5836C29.6308 27.0365 30.5 24.938 30.5 22.75C30.5 20.562 29.6308 18.4635 28.0837 16.9164C26.5365 15.3692 24.4381 14.5 22.25 14.5Z" fill="white"/>
<defs>
<radialGradient id="paint0_radial_79_2126" cx="0" cy="0" r="1" gradientUnits="userSpaceOnUse" gradientTransform="translate(2.83693 7.23864) rotate(40.1538) scale(57.96 214.174)">
<stop stop-color="#A471FA"/>
<stop offset="1" stop-color="#73B6F4"/>
</radialGradient>
</defs>
</svg>
