<svg width="24" height="24" viewBox="0 0 24 24" fill="none" xmlns="http://www.w3.org/2000/svg">
<path d="M7.50002 9H3.50002C3.36741 9 3.24024 9.05268 3.14647 9.14645C3.0527 9.24022 3.00002 9.3674 3.00002 9.5V21.5C3.00002 21.6326 3.0527 21.7598 3.14647 21.8536C3.24024 21.9473 3.36741 22 3.50002 22H7.50002C7.63263 22 7.75981 21.9473 7.85358 21.8536C7.94734 21.7598 8.00002 21.6326 8.00002 21.5V9.5C8.00002 9.3674 7.94734 9.24022 7.85358 9.14645C7.75981 9.05268 7.63263 9 7.50002 9ZM7.00002 21H4.00002V10H7.00002V21ZM18 9C16.915 9 15.86 9.358 15 10.019V9.5C15 9.3674 14.9473 9.24022 14.8536 9.14645C14.7598 9.05268 14.6326 9 14.5 9H10.5C10.3674 9 10.2402 9.05268 10.1465 9.14645C10.0527 9.24022 10 9.3674 10 9.5V21.5C10 21.6326 10.0527 21.7598 10.1465 21.8536C10.2402 21.9473 10.3674 22 10.5 22H14.5C14.6326 22 14.7598 21.9473 14.8536 21.8536C14.9473 21.7598 15 21.6326 15 21.5V16C15 15.6022 15.1581 15.2206 15.4394 14.9393C15.7207 14.658 16.1022 14.5 16.5 14.5C16.8978 14.5 17.2794 14.658 17.5607 14.9393C17.842 15.2206 18 15.6022 18 16V21.5C18 21.6326 18.0527 21.7598 18.1465 21.8536C18.2402 21.9473 18.3674 22 18.5 22H22.5C22.6326 22 22.7598 21.9473 22.8536 21.8536C22.9473 21.7598 23 21.6326 23 21.5V14C22.9984 12.6744 22.4711 11.4036 21.5338 10.4662C20.5965 9.52889 19.3256 9.00159 18 9ZM22 21H19V16C19 15.337 18.7366 14.7011 18.2678 14.2322C17.7989 13.7634 17.1631 13.5 16.5 13.5C15.837 13.5 15.2011 13.7634 14.7323 14.2322C14.2634 14.7011 14 15.337 14 16V21H11V10H14V11.203C14 11.3066 14.0321 11.4076 14.092 11.4921C14.1518 11.5766 14.2364 11.6404 14.3341 11.6748C14.4318 11.7092 14.5378 11.7123 14.6374 11.6839C14.7369 11.6554 14.8252 11.5968 14.89 11.516C15.4035 10.8651 16.1074 10.3906 16.9034 10.1588C17.6995 9.92701 18.548 9.94939 19.3307 10.2228C20.1134 10.4963 20.7913 11.0072 21.2698 11.6843C21.7483 12.3614 22.0036 13.1709 22 14V21ZM5.86802 2.002C5.75052 1.99372 5.63261 1.99305 5.51502 2C5.14079 1.97454 4.76532 2.02619 4.41186 2.15174C4.0584 2.2773 3.73448 2.47409 3.46017 2.72993C3.18587 2.98577 2.96701 3.29521 2.81716 3.63907C2.66731 3.98294 2.58966 4.35391 2.58902 4.729C2.58592 5.10018 2.6591 5.46804 2.80402 5.80977C2.94895 6.1515 3.16254 6.45981 3.43154 6.71559C3.70053 6.97137 4.01921 7.16916 4.3678 7.29669C4.7164 7.42423 5.08747 7.4788 5.45802 7.457H5.48602C5.8442 7.48209 6.20382 7.43637 6.54433 7.32248C6.88485 7.20858 7.19959 7.02873 7.4706 6.79319C7.74161 6.55766 7.96357 6.27105 8.12381 5.94973C8.28405 5.62842 8.37944 5.27868 8.40452 4.9205C8.42961 4.56232 8.38389 4.20271 8.27 3.8622C8.1561 3.52168 7.97625 3.20694 7.74071 2.93593C7.50518 2.66492 7.21857 2.44296 6.89725 2.28271C6.57594 2.12247 6.2262 2.02709 5.86802 2.002ZM5.83302 6.46C5.71802 6.47 5.60202 6.47 5.48602 6.457H5.45802C5.21735 6.4751 4.97555 6.44281 4.74806 6.36219C4.52057 6.28158 4.31239 6.15442 4.13681 5.98883C3.96122 5.82324 3.8221 5.62285 3.72831 5.40047C3.63453 5.17808 3.58815 4.93859 3.59213 4.69727C3.5961 4.45595 3.65036 4.21811 3.75142 3.99894C3.85249 3.77977 3.99814 3.58408 4.17909 3.42437C4.36004 3.26465 4.5723 3.14442 4.80232 3.07136C5.03235 2.99829 5.27508 2.97399 5.51502 3C5.97385 2.95783 6.43063 3.09966 6.78489 3.39428C7.13914 3.6889 7.36185 4.11218 7.40402 4.571C7.44619 5.02983 7.30437 5.48661 7.00975 5.84087C6.71513 6.19512 6.29185 6.41783 5.83302 6.46Z" fill="#457B9D"/>
</svg>
