<svg width="68" height="63" viewBox="0 0 68 63" fill="none" xmlns="http://www.w3.org/2000/svg">
<path d="M30.6 12.4667C28.0058 12.4667 25.585 13.1305 23.5212 14.2868C23.3079 13.2409 22.9191 12.2316 22.3686 11.2948C24.957 9.98174 27.8744 9.31059 30.8325 9.34766C33.7905 9.38474 36.6868 10.1288 39.2351 11.5062C41.7833 12.8836 43.8954 14.8468 45.3624 17.2017C46.8295 19.5565 47.6007 22.2215 47.6 24.9333H56.1034C57.4554 24.9341 58.7518 25.4271 59.7075 26.3037C60.6632 27.1803 61.2 28.369 61.2 29.6083V48.3083C61.2 49.5482 60.6627 50.7373 59.7063 51.614C58.7498 52.4908 57.4526 52.9833 56.1 52.9833H35.7C34.3474 52.9833 33.0502 52.4908 32.0938 51.614C31.1373 50.7373 30.6 49.5482 30.6 48.3083V40.5167C28.2349 40.5194 25.8954 40.0682 23.732 39.1921C23.7762 38.1324 23.8 37.0198 23.8 35.8417V35.7326C25.7992 36.7922 28.1214 37.4 30.6 37.4V29.6083C30.6 28.3684 31.1373 27.1793 32.0938 26.3026C33.0502 25.4259 34.3474 24.9333 35.7 24.9333H44.2C44.2 21.627 42.7672 18.456 40.2167 16.1181C37.6662 13.7801 34.207 12.4667 30.6 12.4667ZM47.26 28.05C46.5913 31.0438 44.9781 33.7916 42.6209 35.9524C40.2636 38.1133 37.2659 39.592 34 40.205V48.3083C34 48.7216 34.1791 49.118 34.4979 49.4102C34.8168 49.7025 35.2492 49.8667 35.7 49.8667H56.1C56.5509 49.8667 56.9833 49.7025 57.3021 49.4102C57.6209 49.118 57.8 48.7216 57.8 48.3083V29.6083C57.8 29.195 57.6209 28.7987 57.3021 28.5064C56.9833 28.2142 56.5509 28.05 56.1 28.05H47.26ZM43.7716 28.05H35.7C35.2492 28.05 34.8168 28.2142 34.4979 28.5064C34.1791 28.7987 34 29.195 34 29.6083V37.0073C36.3522 36.4487 38.4986 35.3236 40.2167 33.7486C41.9349 32.1737 43.1622 30.2061 43.7716 28.05Z" fill="#74b6f4"/>
<path d="M15.572 6.62296C15.8548 6.84885 16.0481 7.15411 16.1219 7.49122C16.1957 7.82832 16.1458 8.17833 15.98 8.48673C15.9512 8.57791 15.9363 8.67231 15.9358 8.76723C15.9358 8.96358 15.9902 9.33758 16.5036 9.80508C16.7518 10.0326 16.9422 10.1947 17.1496 10.3723C17.3196 10.5157 17.4998 10.6653 17.7276 10.871C18.1696 11.2574 18.6354 11.7125 19.0536 12.2828C19.9206 13.4765 20.4 14.9694 20.4 17.1417C20.4 19.8002 19.3256 22.066 17.6494 23.4561L17.867 23.6867C18.819 24.7588 19.3732 26.1489 19.72 27.5202C20.4 30.2317 20.4 33.4917 20.4 35.7638V35.8417C20.4 44.5279 19.1114 49.4553 17.6936 52.2728C16.9796 53.6909 16.2214 54.5947 15.5652 55.1619C15.2984 55.3965 15.0042 55.6035 14.688 55.779C14.5432 55.8589 14.392 55.9288 14.2358 55.9879C14.2358 55.9879 13.8516 56.1 13.6 56.1C13.3484 56.1 12.9642 55.9879 12.9642 55.9879C12.8063 55.9322 12.6548 55.8623 12.512 55.779C12.1957 55.6035 11.9016 55.3965 11.6348 55.1619C10.9786 54.5916 10.2204 53.6909 9.50639 52.2728C8.08859 49.4553 6.79999 44.5279 6.79999 35.8417V35.7638C6.79999 33.4886 6.79999 30.2317 7.47999 27.5202C7.82679 26.1489 8.38099 24.7588 9.33299 23.6867C9.40099 23.6088 9.47579 23.5309 9.55059 23.4561C7.87439 22.066 6.79999 19.8002 6.79999 17.1417C6.79999 16.1257 7.09579 14.9133 7.50379 13.7944C7.91179 12.6724 8.48299 11.513 9.14259 10.578C9.92799 9.36251 11.033 8.34336 11.8898 7.6577C12.3595 7.27901 12.8497 6.92222 13.3586 6.58868L13.4606 6.52635L13.4912 6.50453L13.5014 6.4983L13.5082 6.49518C13.82 6.30468 14.1916 6.21393 14.5655 6.23704C14.9393 6.26015 15.2943 6.39582 15.5754 6.62296H15.572ZM13.6102 21.8167C14.9124 21.8136 17 20.4765 17 17.1417C17 15.4182 16.6294 14.5736 16.2214 14.0126C15.9733 13.6849 15.6872 13.3829 15.368 13.1119L14.9464 12.7503C14.671 12.5135 14.348 12.2392 14.0964 12.0117C13.7245 11.6744 13.4053 11.2915 13.1478 10.8741C12.715 11.2912 12.3341 11.7512 12.0122 12.2454C11.5362 12.9155 11.0738 13.8349 10.7304 14.7824C10.3768 15.7486 10.2 16.6025 10.2 17.1417C10.2 20.4828 12.291 21.8167 13.6 21.8167H13.6068H13.6102ZM11.968 25.6564C11.4886 26.1956 11.084 27.0558 10.795 28.2215C10.2068 30.5527 10.2 33.4824 10.2 35.8417C10.2 44.2972 11.4614 48.7198 12.5936 50.9669C12.9676 51.7056 13.3178 52.198 13.6 52.5252C13.8822 52.198 14.2358 51.7056 14.6064 50.9669C15.7386 48.7198 17 44.2972 17 35.8417C17 33.4824 16.9932 30.5527 16.405 28.2215C16.1126 27.0558 15.7114 26.1956 15.232 25.6564C15.0445 25.4235 14.7979 25.2359 14.5135 25.11C14.2292 24.984 13.9156 24.9234 13.6 24.9334H13.5932C13.2786 24.9241 12.9664 24.9851 12.6832 25.1111C12.4001 25.237 12.1547 25.4242 11.968 25.6564Z" fill="#74b6f4"/>
</svg>
