<svg width="68" height="63" viewBox="0 0 68 63" fill="none" xmlns="http://www.w3.org/2000/svg">
<path d="M6.49397 23.0103C7.75026 19.4544 9.81402 16.1829 12.5494 13.411C12.7755 13.1819 13.0707 13.0197 13.3976 12.9448C13.7245 12.8698 14.0683 12.8857 14.3854 12.9902L20.9066 15.1283C21.3708 15.2802 21.8656 15.3378 22.3565 15.2971C22.8474 15.2563 23.3229 15.1182 23.7498 14.8923C24.1767 14.6664 24.5449 14.3581 24.8289 13.9887C25.113 13.6194 25.306 13.1979 25.3946 12.7534L26.6356 6.50133C26.6957 6.19698 26.8532 5.91591 27.0881 5.69391C27.3231 5.4719 27.6247 5.31899 27.9548 5.25466C31.9391 4.4767 36.0575 4.4767 40.0418 5.25466C40.3718 5.31899 40.6735 5.4719 40.9084 5.69391C41.1433 5.91591 41.3009 6.19698 41.361 6.50133L42.6054 12.7534C42.694 13.1979 42.887 13.6194 43.171 13.9887C43.455 14.3581 43.8232 14.6664 44.2502 14.8923C44.6771 15.1182 45.1525 15.2563 45.6434 15.2971C46.1344 15.3378 46.6291 15.2802 47.0934 15.1283L53.618 12.9902C53.9349 12.8867 54.2782 12.8717 54.6044 12.9472C54.9307 13.0226 55.2251 13.1851 55.4506 13.4141C58.1843 16.1853 60.2468 19.4558 61.5026 23.0103C61.6062 23.3039 61.6124 23.6191 61.5204 23.916C61.4284 24.2128 61.2423 24.4779 60.9858 24.6777L55.6988 28.7917C55.3232 29.0843 55.0215 29.4482 54.8146 29.8583C54.6077 30.2684 54.5005 30.7148 54.5005 31.1666C54.5005 31.6184 54.6077 32.0649 54.8146 32.4749C55.0215 32.885 55.3232 33.2489 55.6988 33.5415L60.9858 37.6555C61.2423 37.8553 61.4284 38.1204 61.5204 38.4173C61.6124 38.7141 61.6062 39.0293 61.5026 39.3229C60.2473 42.8785 58.1847 46.1501 55.4506 48.9223C55.2245 49.1513 54.9292 49.3136 54.6023 49.3885C54.2754 49.4634 53.9316 49.4476 53.6146 49.343L47.0934 47.205C46.6291 47.053 46.1344 46.9954 45.6434 47.0362C45.1525 47.0769 44.6771 47.215 44.2502 47.4409C43.8232 47.6669 43.455 47.9752 43.171 48.3445C42.887 48.7138 42.694 49.1354 42.6054 49.5799L41.3576 55.835C41.2971 56.1384 41.1398 56.4185 40.9055 56.6399C40.6713 56.8612 40.3707 57.0139 40.0418 57.0786C36.0575 57.8567 31.9391 57.8567 27.9548 57.0786C27.6247 57.0143 27.3231 56.8613 27.0881 56.6393C26.8532 56.4173 26.6957 56.1363 26.6356 55.8319L25.3946 49.5799C25.306 49.1354 25.113 48.7138 24.8289 48.3445C24.5449 47.9752 24.1767 47.6669 23.7498 47.4409C23.3229 47.215 22.8474 47.0769 22.3565 47.0362C21.8656 46.9954 21.3708 47.053 20.9066 47.205L14.382 49.343C14.065 49.4465 13.7217 49.4615 13.3955 49.3861C13.0693 49.3106 12.7748 49.1481 12.5494 48.9192C9.81557 46.148 7.75299 42.8775 6.49737 39.3229C6.39372 39.0293 6.38751 38.7141 6.47951 38.4173C6.57152 38.1204 6.7576 37.8553 7.01417 37.6555L12.3012 33.5415C12.6767 33.2489 12.9784 32.885 13.1853 32.4749C13.3922 32.0649 13.4994 31.6184 13.4994 31.1666C13.4994 30.7148 13.3922 30.2684 13.1853 29.8583C12.9784 29.4482 12.6767 29.0843 12.3012 28.7917L7.01417 24.6777C6.7576 24.4779 6.57152 24.2128 6.47951 23.916C6.38751 23.6191 6.39372 23.3039 6.49737 23.0103H6.49397ZM10.1014 22.9916L14.501 26.4137C15.2533 26.9989 15.8577 27.7271 16.2722 28.5478C16.6867 29.3686 16.9014 30.2622 16.9014 31.1666C16.9014 32.0711 16.6867 32.9647 16.2722 33.7854C15.8577 34.6062 15.2533 35.3344 14.501 35.9195L10.1014 39.3416C11.0942 41.7789 12.529 44.0478 14.3344 46.0487L19.7608 44.2722C20.6895 43.9683 21.6792 43.8532 22.6613 43.9349C23.6434 44.0165 24.5944 44.293 25.4483 44.7452C26.3022 45.1973 27.0386 45.8143 27.6064 46.5534C28.1743 47.2924 28.56 48.1358 28.7368 49.0251L29.7738 54.2237C32.5708 54.6512 35.4257 54.6512 38.2228 54.2237L39.2598 49.0189C39.437 48.1299 39.823 47.2868 40.391 46.5481C40.959 45.8094 41.6955 45.1928 42.5493 44.741C43.4032 44.2892 44.354 44.0129 45.3359 43.9314C46.3178 43.85 47.3073 43.9652 48.2358 44.2691L53.6656 46.0487C55.4743 44.0448 56.905 41.7779 57.8986 39.3416L53.499 35.9195C52.7456 35.335 52.1403 34.607 51.7251 33.7861C51.3099 32.9653 51.0948 32.0714 51.0948 31.1666C51.0948 30.2619 51.3099 29.3679 51.7251 28.5471C52.1403 27.7263 52.7456 26.9983 53.499 26.4137L57.8986 22.9916C56.905 20.5554 55.4743 18.2885 53.6656 16.2845L48.2392 18.061C47.3107 18.365 46.3212 18.4802 45.3393 18.3987C44.3574 18.3172 43.4066 18.041 42.5527 17.5892C41.6989 17.1373 40.9624 16.5207 40.3944 15.782C39.8264 15.0433 39.4404 14.2003 39.2632 13.3112L38.2228 8.10953C35.4257 7.68204 32.5708 7.68204 29.7738 8.10953L28.7402 13.3112C28.5634 14.2005 28.1777 15.044 27.6098 15.783C27.042 16.5221 26.3056 17.139 25.4517 17.5912C24.5978 18.0433 23.6468 18.3198 22.6647 18.4015C21.6826 18.4832 20.6929 18.3681 19.7642 18.0642L14.3344 16.2845C12.5257 18.2885 11.095 20.5554 10.1014 22.9916V22.9916ZM25.5 31.1666C25.5 29.1001 26.3955 27.1183 27.9896 25.6571C29.5836 24.1959 31.7456 23.375 34 23.375C36.2543 23.375 38.4163 24.1959 40.0104 25.6571C41.6044 27.1183 42.5 29.1001 42.5 31.1666C42.5 33.2331 41.6044 35.2149 40.0104 36.6762C38.4163 38.1374 36.2543 38.9583 34 38.9583C31.7456 38.9583 29.5836 38.1374 27.9896 36.6762C26.3955 35.2149 25.5 33.2331 25.5 31.1666ZM28.9 31.1666C28.9 32.4065 29.4373 33.5956 30.3937 34.4724C31.3502 35.3491 32.6474 35.8416 34 35.8416C35.3526 35.8416 36.6498 35.3491 37.6062 34.4724C38.5626 33.5956 39.1 32.4065 39.1 31.1666C39.1 29.9267 38.5626 28.7376 37.6062 27.8609C36.6498 26.9842 35.3526 26.4916 34 26.4916C32.6474 26.4916 31.3502 26.9842 30.3937 27.8609C29.4373 28.7376 28.9 29.9267 28.9 31.1666V31.1666Z" fill="#457B9D"/>
</svg>
