<svg width="68" height="63" viewBox="0 0 68 63" fill="none" xmlns="http://www.w3.org/2000/svg">
<path d="M41.6627 11.8551C41.9178 11.9589 42.1481 12.1078 42.3404 12.2932C42.5327 12.4786 42.6833 12.6969 42.7835 12.9357C42.8837 13.1745 42.9317 13.429 42.9246 13.6848C42.9175 13.9405 42.8555 14.1925 42.7422 14.4263L25.7422 49.4888C25.5134 49.961 25.0893 50.3305 24.5633 50.5161C24.0372 50.7017 23.4523 50.6881 22.9372 50.4784C22.4221 50.2686 22.019 49.8799 21.8165 49.3977C21.6141 48.9155 21.6289 48.3793 21.8577 47.9071L38.8577 12.8446C38.971 12.6108 39.1334 12.3997 39.3357 12.2234C39.538 12.0471 39.7761 11.9091 40.0366 11.8172C40.2971 11.7253 40.5748 11.6814 40.8538 11.6879C41.1328 11.6944 41.4077 11.7512 41.6627 11.8551V11.8551ZM18.4152 20.944C18.6234 21.1144 18.7929 21.3207 18.9142 21.5511C19.0354 21.7815 19.1059 22.0316 19.1217 22.287C19.1375 22.5424 19.0982 22.7982 19.0062 23.0397C18.9141 23.2812 18.7711 23.5037 18.5852 23.6945L11.3475 31.1667L18.5937 38.6389C18.9679 39.0253 19.1594 39.5322 19.1259 40.048C19.0924 40.5638 18.8368 41.0463 18.4152 41.3894C17.9937 41.7324 17.4407 41.9079 16.878 41.8772C16.3153 41.8465 15.7889 41.6122 15.4147 41.2257L6.91471 32.4601C6.56938 32.1036 6.37865 31.6435 6.37865 31.1667C6.37865 30.69 6.56938 30.2298 6.91471 29.8733L15.4147 21.1077C15.6 20.9163 15.8246 20.7602 16.0756 20.6484C16.3267 20.5366 16.5993 20.4712 16.878 20.4561C17.1566 20.4409 17.4358 20.4761 17.6996 20.5599C17.9633 20.6436 18.2065 20.7741 18.4152 20.944V20.944ZM49.589 20.944C49.7977 20.7741 50.0409 20.6436 50.3046 20.5599C50.5684 20.4761 50.8476 20.4409 51.1262 20.4561C51.4048 20.4712 51.6775 20.5366 51.9285 20.6484C52.1796 20.7602 52.4042 20.9163 52.5895 21.1077L61.0895 29.8733C61.4348 30.2298 61.6255 30.69 61.6255 31.1667C61.6255 31.6435 61.4348 32.1036 61.0895 32.4601L52.5895 41.2257C52.4042 41.4171 52.1796 41.5731 51.9285 41.6849C51.6774 41.7967 51.4048 41.862 51.1262 41.8772C50.8476 41.8924 50.5684 41.8571 50.3046 41.7734C50.0409 41.6897 49.7977 41.5592 49.589 41.3894C49.3802 41.2195 49.21 41.0136 49.0881 40.7835C48.9662 40.5533 48.8949 40.3034 48.8783 40.048C48.8617 39.7926 48.9002 39.5367 48.9915 39.295C49.0828 39.0532 49.2252 38.8303 49.4105 38.6389L56.6567 31.1667L49.4105 23.6945C49.2251 23.5032 49.0827 23.2803 48.9914 23.0385C48.9 22.7967 48.8615 22.5408 48.8781 22.2854C48.8947 22.03 48.966 21.78 49.088 21.5499C49.2099 21.3197 49.3802 21.1139 49.589 20.944V20.944Z" fill="#74b6f4"/>
</svg>
