<svg width="24" height="24" viewBox="0 0 24 24" fill="none" xmlns="http://www.w3.org/2000/svg">
<path d="M17.16 8.81251C17.8538 8.38359 18.3888 7.74008 18.6838 6.97962C18.9787 6.21915 19.0176 5.38322 18.7946 4.59864C18.5715 3.81406 18.0986 3.12365 17.4476 2.63214C16.7967 2.14063 16.0032 1.87485 15.1875 1.87511H8.81251C7.99681 1.87481 7.20326 2.14058 6.55228 2.6321C5.90129 3.12361 5.42838 3.81405 5.2053 4.59865C4.98221 5.38326 5.02113 6.21922 5.31615 6.9797C5.61116 7.74019 6.14617 8.3837 6.84001 8.81261C6.29659 9.14833 5.84802 9.61741 5.53692 10.1753C5.22582 10.7332 5.06252 11.3613 5.06253 12.0001C5.06254 12.6388 5.22586 13.267 5.53697 13.8249C5.84809 14.3827 6.29667 14.8518 6.8401 15.1875C6.28461 15.5313 5.82859 16.0143 5.51723 16.5886C5.20587 17.163 5.04998 17.8087 5.065 18.4618C5.08003 19.1149 5.26545 19.7527 5.60289 20.3121C5.94033 20.8715 6.41808 21.333 6.9888 21.6509C7.55952 21.9688 8.2034 22.1321 8.85664 22.1245C9.50989 22.117 10.1498 21.9389 10.713 21.6078C11.2762 21.2768 11.7432 20.8044 12.0676 20.2373C12.392 19.6703 12.5626 19.0283 12.5625 18.375V14.6747C12.9388 15.0441 13.3887 15.33 13.883 15.5136C14.3773 15.6973 14.9048 15.7746 15.4309 15.7405C15.9571 15.7064 16.4702 15.5616 16.9366 15.3157C17.403 15.0697 17.8123 14.7281 18.1377 14.3132C18.4631 13.8983 18.6973 13.4194 18.825 12.9078C18.9527 12.3962 18.971 11.8634 18.8787 11.3443C18.7864 10.8251 18.5857 10.3313 18.2895 9.89501C17.9933 9.45874 17.6085 9.08988 17.16 8.81251ZM17.8125 5.62511C17.8117 6.32074 17.5352 6.98769 17.0435 7.47975C16.5518 7.97181 15.885 8.24884 15.1894 8.25011L15.1875 8.25001L15.1839 8.25011L12.5625 8.25001V3.00011H15.1875C15.8835 3.00088 16.5507 3.27768 17.0428 3.7698C17.5349 4.26192 17.8117 4.92915 17.8125 5.62511ZM6.18751 5.62511C6.18828 4.92915 6.46509 4.26192 6.9572 3.7698C7.44932 3.27768 8.11655 3.00088 8.81251 3.00011H11.4375V8.25001H8.81073C8.1151 8.24877 7.44834 7.97177 6.95661 7.47972C6.46488 6.98768 6.1883 6.32074 6.18751 5.62511ZM6.18751 12C6.18828 11.3044 6.46484 10.6374 6.95657 10.1453C7.4483 9.65327 8.11508 9.37625 8.81073 9.37501L8.81251 9.37511H11.4375V14.6249L8.81251 14.625C8.11655 14.6242 7.44932 14.3474 6.9572 13.8553C6.46509 13.3632 6.18828 12.696 6.18751 12ZM8.81251 20.9999C8.46648 21.002 8.12345 20.9356 7.80316 20.8046C7.48287 20.6736 7.19164 20.4806 6.94622 20.2367C6.7008 19.9927 6.50604 19.7026 6.37314 19.3831C6.24024 19.0636 6.17182 18.721 6.17182 18.375C6.17182 18.0289 6.24024 17.6863 6.37314 17.3668C6.50604 17.0473 6.7008 16.7572 6.94622 16.5133C7.19164 16.2693 7.48287 16.0763 7.80316 15.9453C8.12345 15.8143 8.46648 15.7479 8.81251 15.75H11.4375V18.375C11.4367 19.071 11.1599 19.7382 10.6678 20.2303C10.1757 20.7224 9.50845 20.9991 8.81251 20.9999ZM15.1875 14.625C14.494 14.6214 13.8302 14.3435 13.3409 13.852C12.8516 13.3605 12.5767 12.6954 12.5763 12.0019C12.5758 11.3084 12.8497 10.6429 13.3383 10.1507C13.8269 9.65854 14.4904 9.37971 15.1839 9.37511H15.1894C15.8829 9.37949 16.5464 9.65811 17.0351 10.1501C17.5239 10.6421 17.798 11.3075 17.7978 12.001C17.7975 12.6945 17.5229 13.3597 17.0338 13.8513C16.5447 14.343 15.881 14.6211 15.1875 14.625Z" fill="#74b6f4"/>
</svg>
